<?xml version="1.0" standalone="no"?>
<!DOCTYPE svg PUBLIC "-//W3C//DTD SVG 20010904//EN"
 "http://www.w3.org/TR/2001/REC-SVG-20010904/DTD/svg10.dtd">
<svg version="1.0" xmlns="http://www.w3.org/2000/svg"
 width="120.000000pt" height="70.000000pt" viewBox="0 0 120.000000 70.000000"
 preserveAspectRatio="xMidYMid meet">

<g transform="translate(0.000000,70.000000) scale(0.100000,-0.100000)"
fill="#000000" stroke="none">
<path d="M242 548 c9 -7 28 -32 42 -55 l26 -43 -35 0 c-32 0 -35 2 -25 19 13
25 5 46 -25 65 -39 26 -59 19 -93 -29 l-31 -45 40 -20 c40 -21 40 -22 39 -73
-3 -105 -1 -127 15 -127 11 0 15 12 15 45 0 43 1 45 30 45 23 0 35 -9 58 -43
l30 -42 -19 -38 -20 -38 26 -42 c14 -25 25 -35 25 -24 0 14 9 17 45 17 43 0
46 2 80 55 19 31 35 56 35 58 0 1 -37 1 -82 -1 -57 -2 -78 0 -68 7 12 8 9 16
-18 50 -32 39 -32 40 -12 51 11 6 23 24 27 41 4 22 11 29 29 29 28 0 81 71 59
80 -7 3 -25 20 -40 38 -26 31 -30 32 -98 32 -58 0 -68 -2 -55 -12z m62 -134
c21 -8 21 -40 0 -48 -9 -3 -33 -6 -55 -6 -37 0 -39 2 -39 30 0 28 2 30 39 30
22 0 46 -3 55 -6z"/>
<path d="M990 345 c0 -63 4 -105 10 -105 6 0 10 42 10 105 0 63 -4 105 -10
105 -6 0 -10 -42 -10 -105z"/>
<path d="M33 389 c17 -10 17 -12 -3 -43 -26 -43 -25 -61 2 -80 38 -27 74 -20
98 18 11 19 26 36 32 38 7 3 2 18 -13 41 -23 35 -27 37 -79 37 -43 -1 -51 -3
-37 -11z"/>
<path d="M446 389 c-65 -18 -85 -72 -45 -123 22 -27 56 -34 89 -16 31 17 40
43 30 82 -14 49 -38 67 -74 57z"/>
<path d="M570 370 c-42 -42 -13 -130 43 -130 28 0 41 9 56 38 16 29 -4 30 -28
1 -33 -41 -80 1 -65 58 8 29 41 39 63 19 31 -28 45 -12 15 18 -21 22 -60 20
-84 -4z"/>
<path d="M690 386 c0 -3 12 -37 26 -76 27 -77 25 -110 -9 -110 -15 0 -18 -3
-10 -11 6 -6 20 -8 31 -5 18 6 32 38 90 194 2 6 -2 12 -10 12 -8 0 -22 -25
-35 -62 l-20 -63 -18 63 c-11 36 -24 62 -32 62 -7 0 -13 -2 -13 -4z"/>
<path d="M860 370 c-42 -42 -13 -130 43 -130 28 0 41 9 56 38 16 29 -4 30 -28
1 -33 -41 -80 1 -65 58 8 29 41 39 63 19 31 -28 45 -12 15 18 -21 22 -60 20
-84 -4z"/>
<path d="M1070 370 c-29 -29 -27 -94 2 -114 12 -9 32 -16 44 -16 26 0 72 35
62 46 -5 4 -16 0 -26 -9 -23 -21 -46 -22 -66 -1 -27 26 -18 34 39 34 48 0 55
2 55 20 0 28 -35 60 -65 60 -14 0 -34 -9 -45 -20z m78 -12 c21 -21 13 -28 -33
-28 -46 0 -54 7 -33 28 15 15 51 15 66 0z"/>
<path d="M40 232 c0 -1 9 -20 20 -41 32 -64 44 -71 116 -71 l64 0 0 54 0 55
-100 3 c-55 2 -100 2 -100 0z"/>
</g>
</svg>
